<svg xmlns="http://www.w3.org/2000/svg" version="1.1" viewBox="182 180 442 444">
<path d="M0,0 L29,0 L53,3 L74,8 L92,14 L112,23 L125,30 L136,37 L147,45 L156,52 L170,64 L182,77 L195,94 L208,115 L219,138 L229,168 L234,193 L235,202 L235,237 L232,258 L226,284 L219,305 L206,332 L196,348 L188,359 L180,369 L171,379 L160,390 L143,403 L129,412 L106,424 L80,434 L52,441 L27,444 L-2,444 L-25,441 L-47,436 L-70,428 L-91,418 L-107,408 L-123,396 L-135,385 L-137,384 L-137,382 L-139,382 L-139,380 L-142,379 L-149,371 L-160,358 L-169,345 L-177,332 L-188,311 L-196,290 L-202,267 L-206,242 L-207,226 L-207,209 L-204,184 L-198,158 L-191,138 L-181,117 L-169,98 L-159,85 L-150,75 L-143,67 L-135,59 L-124,50 L-113,41 L-96,30 L-73,18 L-55,11 L-30,4 L-11,1 Z " fill="#F4F6F4" transform="translate(389,180)"/>
<path d="M0,0 L1,0 L0,34 L-1,46 L-9,60 L-16,71 L-27,79 L-34,83 L-41,82 L-43,81 L-49,93 L-35,86 L-29,84 L-1,84 L-1,86 L-14,94 L-28,102 L-37,105 L-57,106 L-65,109 L-76,117 L-79,120 L-72,116 L-59,112 L-19,112 L-24,116 L-39,128 L-58,141 L-78,139 L-84,138 L-108,138 L-121,142 L-133,147 L-149,155 L-160,163 L-165,167 L-166,171 L-160,181 L-149,168 L-139,159 L-127,151 L-117,146 L-86,146 L-70,147 L-52,150 L-55,153 L-82,167 L-98,175 L-105,179 L-151,184 L-158,184 L-155,192 L-156,196 L-160,196 L-168,180 L-171,176 L-174,177 L-182,191 L-184,196 L-189,195 L-188,190 L-185,184 L-197,184 L-216,182 L-228,180 L-235,179 L-251,171 L-273,160 L-289,151 L-289,150 L-274,148 L-272,147 L-255,146 L-237,146 L-224,148 L-214,153 L-202,162 L-190,174 L-185,181 L-181,176 L-177,171 L-179,167 L-193,156 L-205,149 L-231,139 L-235,138 L-262,138 L-276,140 L-284,140 L-299,130 L-317,117 L-323,113 L-323,112 L-303,111 L-284,111 L-274,113 L-264,117 L-245,129 L-250,125 L-264,115 L-269,111 L-281,105 L-304,104 L-316,99 L-327,92 L-334,87 L-337,86 L-337,84 L-314,84 L-302,87 L-293,91 L-287,94 L-294,84 L-294,81 L-298,84 L-307,81 L-319,74 L-326,66 L-336,47 L-337,46 L-337,1 L-330,7 L-323,14 L-318,19 L-302,35 L-299,36 L-296,48 L-294,55 L-292,82 L-282,97 L-272,106 L-268,108 L-276,97 L-283,87 L-287,78 L-287,70 L-283,54 L-279,39 L-277,39 L-267,58 L-261,71 L-261,92 L-264,100 L-264,111 L-248,122 L-253,111 L-257,100 L-257,84 L-255,80 L-253,71 L-250,65 L-245,70 L-236,80 L-220,95 L-214,106 L-209,122 L-206,136 L-206,141 L-200,143 L-188,150 L-177,159 L-173,162 L-173,164 L-162,155 L-150,146 L-141,141 L-139,141 L-139,118 L-137,106 L-130,95 L-121,84 L-117,80 L-111,108 L-110,110 L-110,117 L-123,129 L-131,136 L-132,137 L-114,130 L-105,126 L-101,122 L-105,109 L-106,96 L-99,83 L-92,72 L-86,63 L-83,64 L-79,80 L-79,99 L-81,105 L-87,115 L-96,125 L-102,131 L-91,124 L-77,114 L-71,109 L-72,100 L-75,91 L-75,72 L-70,60 L-66,52 L-64,52 L-63,47 L-59,40 L-57,41 L-51,70 L-51,78 L-56,90 L-63,99 L-67,105 L-67,107 L-59,100 L-50,90 L-45,79 L-43,61 L-40,50 L-38,38 L-35,35 L-27,28 L-18,20 L-11,12 L-6,7 Z " fill="#15633A" transform="translate(574,398)"/>
<path d="M0,0 L33,0 L56,3 L71,7 L90,13 L103,19 L117,26 L134,37 L138,39 L138,41 L143,43 L157,55 L169,66 L176,74 L186,86 L196,101 L204,116 L212,133 L222,167 L226,188 L226,195 L204,195 L200,171 L192,145 L185,128 L179,116 L170,102 L162,92 L152,80 L147,75 L133,63 L123,56 L109,47 L93,38 L77,32 L64,28 L40,23 L-3,23 L-23,26 L-35,29 L-48,33 L-59,38 L-75,46 L-91,56 L-102,65 L-112,74 L-121,82 L-130,93 L-141,107 L-150,123 L-157,137 L-162,150 L-168,174 L-170,184 L-171,195 L-192,195 L-192,186 L-189,167 L-184,148 L-180,136 L-175,124 L-164,103 L-156,91 L-148,81 L-137,68 L-120,51 L-118,51 L-118,49 L-99,35 L-82,24 L-67,17 L-55,12 L-45,9 L-38,7 L-29,5 L-28,4 L-15,2 L-13,1 Z " fill="#0D8A46" transform="translate(387,193)"/>
<path d="M0,0 L3,0 L2,5 L-6,21 L-15,41 L-22,55 L-25,61 L-43,65 L-59,69 L-65,71 L-79,74 L-92,79 L-97,82 L-99,100 L-93,92 L-86,85 L-77,79 L-67,75 L-30,75 L-22,76 L-27,81 L-43,94 L-56,104 L-61,108 L-84,108 L-97,106 L-99,105 L-95,121 L-91,148 L-91,186 L-94,186 L-101,178 L-104,175 L-108,176 L-116,181 L-124,185 L-127,185 L-126,181 L-119,170 L-113,158 L-109,145 L-105,125 L-105,108 L-115,112 L-134,112 L-146,110 L-146,108 L-148,108 L-154,101 L-159,96 L-174,81 L-174,79 L-178,77 L-180,73 L-184,71 L-184,69 L-140,72 L-128,75 L-119,81 L-113,86 L-106,97 L-106,99 L-110,98 L-128,90 L-127,94 L-106,102 L-104,102 L-102,84 L-99,74 L-96,69 L-93,61 L-86,50 L-76,35 L-67,24 L-65,24 L-63,20 L-56,15 L-29,8 L-23,8 L-23,6 L-8,3 Z " fill="#156639" transform="translate(504,331)"/>
<path d="M0,0 L7,6 L22,20 L28,25 L33,30 L44,40 L46,41 L52,59 L52,66 L49,77 L41,93 L30,109 L26,115 L24,112 L22,83 L21,79 L17,78 L18,81 L19,101 L19,143 L17,143 L14,138 L2,124 L-6,116 L-10,110 L-15,105 L-20,96 L-23,88 L-24,74 L-25,69 L-25,58 L-20,46 L-10,23 L-2,4 Z " fill="#1A8B4C" transform="translate(381,275)"/>
<path d="M0,0 L7,6 L14,13 L19,18 L35,34 L38,35 L41,47 L43,54 L44,67 L44,77 L43,80 L39,83 L30,80 L18,73 L11,65 L1,46 L0,45 Z " fill="#0E6338" transform="translate(237,399)"/>
<path d="M0,0 L1,0 L0,34 L-1,46 L-9,60 L-16,71 L-27,79 L-34,83 L-41,82 L-44,81 L-44,69 L-41,52 L-39,43 L-37,36 L-31,32 L-23,25 L-16,17 L-8,10 Z " fill="#0F6739" transform="translate(574,398)"/>
<path d="M0,0 L2,1 L2,3 L7,5 L18,15 L24,19 L29,20 L29,32 L28,40 L23,51 L22,56 L15,50 L6,40 L2,32 L1,28 Z " fill="#117340" transform="translate(536,299)"/>
<path d="M0,0 L2,0 L0,5 L-8,21 L-15,30 L-22,33 L-37,33 L-52,31 L-52,28 L-41,22 L-34,14 L-28,9 L-19,5 Z " fill="#13673A" transform="translate(278,354)"/>
<path d="M0,0 L1,0 L1,21 L-3,37 L-14,50 L-19,55 L-26,35 L-26,20 L-19,17 L-6,5 Z " fill="#116D3C" transform="translate(266,299)"/>
<path d="M0,0 L9,2 L22,6 L33,12 L38,16 L43,21 L53,28 L49,30 L38,32 L22,32 L14,29 L8,19 L4,11 L1,3 Z " fill="#136A3C" transform="translate(527,355)"/>
<path d="M0,0 L1,0 L0,7 L-4,14 L10,7 L16,5 L44,5 L44,7 L31,15 L17,23 L8,26 L-12,27 L-19,28 L-17,24 L-8,15 L-4,9 Z " fill="#1C613D" transform="translate(529,477)"/>
<path d="M0,0 L2,4 L12,19 L19,26 L19,29 L13,27 L-10,26 L-22,21 L-33,14 L-40,9 L-43,8 L-43,6 L-20,6 L-8,9 L1,13 L7,16 L0,6 Z " fill="#1E5C3F" transform="translate(280,476)"/>
</svg>